<svg width="200" height="200" viewBox="0 0 250 250" fill="none" xmlns="http://www.w3.org/2000/svg">
<path d="M250 125C250 149.723 242.669 173.89 228.934 194.446C215.199 215.002 195.676 231.024 172.835 240.485C149.995 249.946 124.861 252.421 100.614 247.598C76.3661 242.775 54.0932 230.87 36.6117 213.388C19.1301 195.907 7.22499 173.634 2.40184 149.386C-2.42131 125.139 0.0541045 100.005 9.51506 77.1646C18.976 54.3238 34.9976 34.8015 55.5537 21.0663C76.1099 7.33112 100.277 -2.94815e-07 125 0L125 39.3007C108.05 39.3007 91.4812 44.3269 77.388 53.7437C63.2949 63.1604 52.3106 76.5448 45.8242 92.2043C39.3378 107.864 37.6407 125.095 40.9474 141.719C44.2541 158.343 52.4162 173.613 64.4015 185.599C76.3867 197.584 91.6569 205.746 108.281 209.053C124.905 212.359 142.136 210.662 157.796 204.176C173.455 197.689 186.84 186.705 196.256 172.612C205.673 158.519 210.699 141.95 210.699 125H250Z" fill="#00DCFF"/>
</svg>
